<svg xmlns="http://www.w3.org/2000/svg" width="1920" height="1080" viewBox="0 0 1920 1080">
<defs><clipPath id="c0"><rect x="48.00" y="32.20" width="205.50" height="21.59" rx="0"/></clipPath><clipPath id="c1"><rect x="269.50" y="32.20" width="205.50" height="21.59" rx="0"/></clipPath><clipPath id="c2"><rect x="491.00" y="32.20" width="205.50" height="21.59" rx="0"/></clipPath><clipPath id="c3"><rect x="712.50" y="32.20" width="205.50" height="21.59" rx="0"/></clipPath><clipPath id="c4"><rect x="934.00" y="32.20" width="205.50" height="21.59" rx="0"/></clipPath><clipPath id="c5"><rect x="1155.50" y="32.20" width="205.50" height="21.59" rx="0"/></clipPath><clipPath id="c6"><rect x="1377.00" y="32.20" width="205.50" height="21.59" rx="0"/></clipPath><clipPath id="c7"><rect x="1598.50" y="32.20" width="205.50" height="21.59" rx="0"/></clipPath><clipPath id="c8"><rect x="736.00" y="176.00" width="1120.00" height="800.00" rx="0"/></clipPath></defs>
<rect x="0.00" y="0.00" width="1920.00" height="1080.00" fill="rgb(255,254,249)"/>
<rect x="0.00" y="0.00" width="1920.00" height="72.00" fill="rgb(255,254,249)"/>
<rect x="48.00" y="18.20" width="205.50" height="6.00" rx="3.00" fill="rgb(233,229,221)"/>
<g clip-path="url(#c0)">
<text x="48.00" y="49.10" font-family="Poppins" font-size="18.00" font-weight="400" fill="rgb(122,114,136)" xml:space="preserve">00 Opening</text>
</g>
<rect x="269.50" y="18.20" width="205.50" height="6.00" rx="3.00" fill="rgb(233,229,221)"/>
<g clip-path="url(#c1)">
<text x="269.50" y="49.10" font-family="Poppins" font-size="18.00" font-weight="400" fill="rgb(122,114,136)" xml:space="preserve">01 Inside</text>
</g>
<rect x="491.00" y="18.20" width="205.50" height="6.00" rx="3.00" fill="rgb(233,229,221)"/>
<g clip-path="url(#c2)">
<text x="491.00" y="49.10" font-family="Poppins" font-size="18.00" font-weight="400" fill="rgb(122,114,136)" xml:space="preserve">02 Never sleeps</text>
</g>
<rect x="712.50" y="18.20" width="205.50" height="6.00" rx="3.00" fill="rgb(233,229,221)"/>
<g clip-path="url(#c3)">
<text x="712.50" y="49.10" font-family="Poppins" font-size="18.00" font-weight="400" fill="rgb(122,114,136)" xml:space="preserve">03 The bill</text>
</g>
<rect x="934.00" y="18.20" width="205.50" height="6.00" rx="3.00" fill="rgb(233,229,221)"/>
<g clip-path="url(#c4)">
<text x="934.00" y="49.10" font-family="Poppins" font-size="18.00" font-weight="400" fill="rgb(122,114,136)" xml:space="preserve">04 Nepal</text>
</g>
<rect x="1155.50" y="18.20" width="205.50" height="6.00" rx="3.00" fill="rgb(200,121,97)"/>
<g clip-path="url(#c5)">
<text x="1155.50" y="49.10" font-family="Poppins" font-size="18.00" font-weight="700" fill="rgb(58,53,72)" xml:space="preserve">05 Afterlife</text>
</g>
<rect x="1377.00" y="18.20" width="205.50" height="6.00" rx="3.00" fill="rgb(233,229,221)"/>
<g clip-path="url(#c6)">
<text x="1377.00" y="49.10" font-family="Poppins" font-size="18.00" font-weight="400" fill="rgb(122,114,136)" xml:space="preserve">06 Questions</text>
</g>
<rect x="1598.50" y="18.20" width="205.50" height="6.00" rx="3.00" fill="rgb(233,229,221)"/>
<g clip-path="url(#c7)">
<text x="1598.50" y="49.10" font-family="Poppins" font-size="18.00" font-weight="400" fill="rgb(122,114,136)" xml:space="preserve">END</text>
</g>
<rect x="1828.50" y="14.50" width="43.00" height="43.00" rx="21.50" fill="none" stroke="rgb(217,212,204)" stroke-width="1"/>
<svg data-dc-tpl="11" width="22.00" height="22.00" viewBox="0 0 24 24" fill="none" stroke="rgb(122, 114, 136)" x="1839.00" y="25.00"><path data-dc-tpl="12" d="M4 15v-3a8 8 0 0 1 16 0v3"/><rect data-dc-tpl="13" x="3" y="14" width="4" height="6" rx="1.5"/><rect data-dc-tpl="14" x="17" y="14" width="4" height="6" rx="1.5"/></svg>
<text x="96.00" y="271.79" font-family="Poppins" font-size="18.00" font-weight="400" fill="rgb(122,114,136)" letter-spacing="1.44" xml:space="preserve">05.1 · WHAT DOES IT LEAVE BEHIND?</text>
<text x="96.00" y="366.49" font-family="Poppins" font-size="72.00" font-weight="700" fill="rgb(58,53,72)" letter-spacing="-1.44" xml:space="preserve">It doesn't end</text>
<text x="96.00" y="444.24" font-family="Poppins" font-size="72.00" font-weight="700" fill="rgb(58,53,72)" letter-spacing="-1.44" xml:space="preserve">when it leaves</text>
<text x="96.00" y="521.99" font-family="Poppins" font-size="72.00" font-weight="700" fill="rgb(58,53,72)" letter-spacing="-1.44" xml:space="preserve">the rack.</text>
<text x="96.00" y="592.74" font-family="Poppins" font-size="32.00" font-weight="400" fill="rgb(58,53,72)" xml:space="preserve">Reuse · Refurbish · Recycle ·</text>
<text x="96.00" y="635.93" font-family="Poppins" font-size="32.00" font-weight="400" fill="rgb(58,53,72)" xml:space="preserve">Discard</text>
<text x="96.00" y="695.72" font-family="Poppins" font-size="24.00" font-weight="400" fill="rgb(122,114,136)" xml:space="preserve">Servers are usually replaced after a few</text>
<text x="96.00" y="730.51" font-family="Poppins" font-size="24.00" font-weight="400" fill="rgb(122,114,136)" xml:space="preserve">years. Tap a path to see what happens.</text>
<rect x="736.00" y="176.00" width="1120.00" height="800.00" fill="rgb(255,254,249)"/>
<g clip-path="url(#c8)">
<svg data-dc-tpl="21" width="1120.00" height="800.00" viewBox="0 0 1120 800" x="736.00" y="176.00"><rect data-dc-tpl="22" x="80" y="365" width="200" height="70" rx="6" fill="#F3E2DB" stroke="#3A3548" stroke-width="2.5px"/><path data-dc-tpl="23" d="M104 400 H170 M240 390 v20 M256 390 v20" fill="none" stroke="#3A3548" stroke-width="3px" stroke-linecap="round"/><path data-dc-tpl="24" d="M280 400 H400 M400 400 C 560 400, 600 160, 780 160 M400 400 C 560 400, 600 320, 780 320 M400 400 C 560 400, 600 480, 780 480 M400 400 C 560 400, 600 640, 780 640" fill="none" stroke="#3A3548" stroke-width="3px" stroke-linecap="round"/><circle data-dc-tpl="25" cx="400" cy="400" r="9" fill="#3A3548"/></svg>
<rect x="1527.00" y="307.00" width="238.00" height="58.00" rx="29.00" fill="rgb(255,254,249)" stroke="rgb(58,53,72)" stroke-width="2"/>
<text x="1608.59" y="344.70" font-family="Poppins" font-size="24.00" font-weight="700" fill="rgb(58,53,72)" xml:space="preserve">Reuse</text>
<rect x="1527.00" y="467.00" width="238.00" height="58.00" rx="29.00" fill="rgb(255,254,249)" stroke="rgb(58,53,72)" stroke-width="2"/>
<text x="1586.77" y="504.70" font-family="Poppins" font-size="24.00" font-weight="700" fill="rgb(58,53,72)" xml:space="preserve">Refurbish</text>
<rect x="1527.00" y="627.00" width="238.00" height="58.00" rx="29.00" fill="rgb(255,254,249)" stroke="rgb(58,53,72)" stroke-width="2"/>
<text x="1597.73" y="664.70" font-family="Poppins" font-size="24.00" font-weight="700" fill="rgb(58,53,72)" xml:space="preserve">Recycle</text>
<rect x="1527.00" y="787.00" width="238.00" height="58.00" rx="29.00" fill="rgb(255,254,249)" stroke="rgb(58,53,72)" stroke-width="2"/>
<text x="1598.34" y="824.70" font-family="Poppins" font-size="24.00" font-weight="700" fill="rgb(58,53,72)" xml:space="preserve">Discard</text>
</g>
<rect x="97.00" y="933.00" width="70.00" height="70.00" rx="35.00" fill="none" stroke="rgb(217,212,204)" stroke-width="2"/>
<svg data-dc-tpl="6" width="28.00" height="28.00" viewBox="0 0 24 24" fill="none" stroke="rgb(58, 53, 72)" x="118.00" y="954.00"><path data-dc-tpl="7" d="M19 12H5"/><path data-dc-tpl="8" d="M11 6l-6 6 6 6"/></svg>
<text x="1593.81" y="972.90" font-family="Poppins" font-size="18.00" font-weight="400" fill="rgb(122,114,136)" xml:space="preserve">Next in 6 s</text>
<svg data-dc-tpl="12" width="136.00" height="136.00" viewBox="0 0 136 136" x="1700.00" y="900.00"><circle data-dc-tpl="13" cx="68" cy="68" r="64" fill="none" stroke="#E9E5DD" stroke-width="4px"/><circle data-dc-tpl="14" cx="68" cy="68" r="64" fill="none" stroke="#3A3548" transform="rotate(-90 68 68)" stroke-width="4px" stroke-linecap="round" stroke-dasharray="141, 402"/></svg>
<rect x="1712.00" y="912.00" width="112.00" height="112.00" rx="56.00" fill="rgb(200,121,97)"/>
<svg data-dc-tpl="17" width="40.00" height="40.00" viewBox="0 0 24 24" fill="none" stroke="rgb(58, 53, 72)" x="1748.00" y="948.00"><path data-dc-tpl="18" d="M5 12h14"/><path data-dc-tpl="19" d="M13 6l6 6-6 6"/></svg>
</svg>
